<svg width="48" height="48" viewBox="0 0 48 48" fill="none" xmlns="http://www.w3.org/2000/svg">
<path fill-rule="evenodd" clip-rule="evenodd" d="M8 1.99992L7.81385 1.99972C7.07641 1.99849 6.35159 1.99728 5.7059 2.17029C3.98044 2.63263 2.63271 3.98037 2.17037 5.70583C1.99736 6.35151 1.99857 7.07633 1.99979 7.81377L2 7.99992L2 8.00035L1.99979 8.18607C1.99959 8.30972 1.99938 8.43301 2 8.55564V11.9989L2 11.9999V31.1999L2 31.2855C1.99998 33.453 1.99996 35.2014 2.11563 36.6171C2.23473 38.0748 2.48636 39.3552 3.08993 40.5398C4.04867 42.4214 5.57847 43.9512 7.46009 44.9099C8.64468 45.5135 9.92505 45.7651 11.3828 45.8842C12.7985 45.9999 14.5467 45.9999 16.7141 45.9999H16.7143H16.8H31.2H31.2857H31.2859C33.4533 45.9999 35.2015 45.9999 36.6172 45.8842C38.0749 45.7651 39.3553 45.5135 40.5399 44.9099C42.4215 43.9512 43.9513 42.4214 44.9101 40.5398C45.5136 39.3552 45.7653 38.0748 45.8844 36.6171C45.9006 36.418 45.9146 36.2123 45.9266 35.9999H42H41.936C41.0587 35.9999 40.3018 35.9999 39.6752 35.9572C39.0156 35.9122 38.3558 35.8131 37.7039 35.5431C36.2337 34.9342 35.0657 33.7661 34.4567 32.296C34.1867 31.6441 34.0877 30.9843 34.0427 30.3246C34 29.6981 34 28.9411 34 28.0638V27.9999V27.9359C34 27.0586 34 26.3016 34.0427 25.6751C34.0877 25.0154 34.1867 24.3556 34.4567 23.7038C35.0657 22.2336 36.2337 21.0655 37.7039 20.4566C38.3558 20.1866 39.0156 20.0876 39.6752 20.0426C40.3017 19.9998 41.0587 19.9998 41.936 19.9999H41.936L42 19.9999H45.9266C45.9146 19.7874 45.9006 19.5817 45.8844 19.3826C45.7653 17.9249 45.5136 16.6445 44.9101 15.46C43.9513 13.5783 42.4215 12.0485 40.5399 11.0898C39.3553 10.4862 38.0749 10.2346 36.6172 10.1155C36.1273 10.0755 35.5974 10.0493 35.0242 10.0322L31.52 5.35992L31.3994 5.1989C30.8161 4.41938 30.3023 3.7327 29.6269 3.22018C29.0342 2.77047 28.3631 2.4349 27.6477 2.2306C26.8324 1.99776 25.9748 1.9987 25.0012 1.99978L24.8 1.99992H8ZM30 9.99986L28.32 7.75992C27.5464 6.72852 27.3796 6.53615 27.209 6.40667C27.0114 6.25677 26.7877 6.14492 26.5492 6.07681C26.3433 6.01799 26.0893 5.99992 24.8 5.99992H8C7.51689 5.99992 7.22126 6.00041 6.99721 6.01062C6.79657 6.01977 6.74024 6.03416 6.74048 6.03417C6.7405 6.03417 6.74074 6.03412 6.74118 6.034C6.39609 6.12646 6.12654 6.39601 6.03407 6.7411C6.03608 6.73363 6.02043 6.78383 6.0107 6.99713C6.00048 7.22119 6 7.51681 6 7.99992C6 8.48304 6.00048 8.77866 6.0107 9.00271C6.02043 9.21602 6.03608 9.26622 6.03407 9.25874C6.12654 9.60383 6.39609 9.87338 6.74118 9.96585C6.7482 9.96754 6.80964 9.98067 6.99721 9.98922C7.18826 9.99794 7.43135 9.99957 7.79835 9.99986H24H30ZM46 31.3023V31.2857V31.2855V31.1999V24.7999V24.7142V24.714V24.6974C46 24.4599 46 24.2274 45.9998 23.9999H42C41.0408 23.9999 40.4215 24.0009 39.9475 24.0333C39.4915 24.0644 39.3179 24.1176 39.2346 24.1521C38.7446 24.3551 38.3552 24.7444 38.1522 25.2345C38.1178 25.3177 38.0645 25.4914 38.0334 25.9474C38.0011 26.4213 38 27.0406 38 27.9999C38 28.9591 38.0011 29.5784 38.0334 30.0523C38.0645 30.5083 38.1178 30.682 38.1522 30.7652C38.3552 31.2553 38.7446 31.6446 39.2346 31.8476C39.3179 31.8821 39.4915 31.9353 39.9475 31.9664C40.4215 31.9988 41.0408 31.9999 42 31.9999H45.9998C46 31.7723 46 31.5398 46 31.3023Z" fill="#FF68C3"/>
</svg>
