<svg width="12" height="10" viewBox="0 0 12 10" fill="none" xmlns="http://www.w3.org/2000/svg">
<path fill-rule="evenodd" clip-rule="evenodd" d="M6.63633 0.386176C6.92923 0.0932818 7.4041 0.0932794 7.69699 0.386171L11.7803 4.46946C11.921 4.61012 12 4.80088 12 4.99979C12 5.19871 11.921 5.38947 11.7803 5.53013L7.697 9.61346C7.4041 9.90635 6.92923 9.90635 6.63634 9.61346C6.34344 9.32057 6.34344 8.84569 6.63634 8.5528L9.43934 5.7498H0.75C0.335786 5.7498 0 5.41401 0 4.9998C0 4.58558 0.335786 4.2498 0.75 4.2498H9.43933L6.63634 1.44684C6.34344 1.15394 6.34344 0.679071 6.63633 0.386176Z" fill="white"/>
</svg>
