<svg width="9" height="12" viewBox="0 0 9 12" fill="none" xmlns="http://www.w3.org/2000/svg">
<path fill-rule="evenodd" clip-rule="evenodd" d="M4.49996 0.875C4.76518 0.875 5.01953 0.980357 5.20707 1.16789L8.4154 4.37623C8.80592 4.76675 8.80592 5.39992 8.4154 5.79044C8.02487 6.18096 7.39171 6.18096 7.00119 5.79044L5.49996 4.28921L5.49996 10.125C5.49996 10.6773 5.05224 11.125 4.49996 11.125C3.94768 11.125 3.49996 10.6773 3.49996 10.125L3.49996 4.28921L1.99873 5.79044C1.60821 6.18096 0.975044 6.18096 0.584519 5.79044C0.193995 5.39992 0.193995 4.76675 0.584519 4.37623L3.79285 1.16789C3.98039 0.980357 4.23474 0.875 4.49996 0.875Z" fill="#40C374"/>
</svg>
