<svg width="20" height="20" viewBox="0 0 20 20" fill="none" xmlns="http://www.w3.org/2000/svg">
<path fill-rule="evenodd" clip-rule="evenodd" d="M0.916626 10.0001C0.916626 4.9835 4.98337 0.916748 9.99996 0.916748C15.0165 0.916748 19.0833 4.9835 19.0833 10.0001C19.0833 15.0167 15.0165 19.0834 9.99996 19.0834C4.98337 19.0834 0.916626 15.0167 0.916626 10.0001ZM10.75 6.66675C10.75 6.25253 10.4142 5.91675 9.99996 5.91675C9.58574 5.91675 9.24996 6.25253 9.24996 6.66675V9.25008H6.66663C6.25241 9.25008 5.91663 9.58587 5.91663 10.0001C5.91663 10.4143 6.25241 10.7501 6.66663 10.7501H9.24996V13.3334C9.24996 13.7476 9.58574 14.0834 9.99996 14.0834C10.4142 14.0834 10.75 13.7476 10.75 13.3334V10.7501H13.3333C13.7475 10.7501 14.0833 10.4143 14.0833 10.0001C14.0833 9.58587 13.7475 9.25008 13.3333 9.25008H10.75V6.66675Z" fill="white"/>
</svg>
