<svg width="32" height="32" viewBox="0 0 32 32" fill="none" xmlns="http://www.w3.org/2000/svg">
<path fill-rule="evenodd" clip-rule="evenodd" d="M16 1.9165C10.4311 1.9165 5.91666 6.43097 5.91666 11.9998V16.5832H5.86666H5.83622C5.30207 16.5832 4.85622 16.5832 4.49199 16.6129C4.1121 16.6439 3.75545 16.7111 3.41818 16.8829C2.90074 17.1466 2.48004 17.5673 2.21639 18.0847C2.04455 18.422 1.97743 18.7786 1.9464 19.1585C1.91664 19.5227 1.91665 19.9686 1.91666 20.5027L1.91666 20.5332V26.1332L1.91666 26.1636C1.91665 26.6978 1.91664 27.1436 1.9464 27.5078C1.97743 27.8877 2.04455 28.2444 2.21639 28.5816C2.48004 29.0991 2.90074 29.5198 3.41818 29.7834C3.75545 29.9553 4.1121 30.0224 4.49199 30.0534C4.85617 30.0832 5.30195 30.0832 5.83602 30.0832H5.83621H5.86666H7.46666H7.49711H7.4973C8.03136 30.0832 8.47714 30.0832 8.84133 30.0534C9.22121 30.0224 9.57787 29.9553 9.91513 29.7834C10.4326 29.5198 10.8533 29.0991 11.1169 28.5816C11.2888 28.2444 11.3559 27.8877 11.3869 27.5078C11.4167 27.1436 11.4167 26.6978 11.4167 26.1637V26.1636V26.1332V20.5332V20.5027V20.5027C11.4167 19.9685 11.4167 19.5227 11.3869 19.1585C11.3559 18.7786 11.2888 18.422 11.1169 18.0847C10.8533 17.5673 10.4326 17.1466 9.91513 16.8829C9.57787 16.7111 9.22121 16.6439 8.84133 16.6129C8.47709 16.5832 8.03125 16.5832 7.49709 16.5832H7.46666H7.41666V11.9998C7.41666 7.2594 11.2595 3.4165 16 3.4165C20.7404 3.4165 24.5833 7.25939 24.5833 11.9998V16.5832H24.5333H24.5029C23.9687 16.5832 23.5229 16.5832 23.1587 16.6129C22.7788 16.6439 22.4221 16.7111 22.0849 16.8829C21.5674 17.1466 21.1467 17.5673 20.8831 18.0847C20.7112 18.422 20.6441 18.7786 20.6131 19.1585C20.5833 19.5227 20.5833 19.9686 20.5833 20.5027V20.5332V26.1332V26.1636C20.5833 26.6978 20.5833 27.1436 20.6131 27.5078C20.6441 27.8877 20.7112 28.2444 20.8831 28.5816C21.1467 29.0991 21.5674 29.5198 22.0849 29.7834C22.4221 29.9553 22.7788 30.0224 23.1587 30.0534C23.5228 30.0832 23.9686 30.0832 24.5027 30.0832H24.5029H24.5333H26.1333H26.1638H26.164C26.698 30.0832 27.1438 30.0832 27.508 30.0534C27.8879 30.0224 28.2445 29.9553 28.5818 29.7834C29.0992 29.5198 29.5199 29.0991 29.7836 28.5816C29.9554 28.2444 30.0225 27.8877 30.0536 27.5078C30.0833 27.1437 30.0833 26.6979 30.0833 26.1638V26.1636V26.1332V20.5332V20.5027V20.5025C30.0833 19.9685 30.0833 19.5227 30.0536 19.1585C30.0225 18.7786 29.9554 18.422 29.7836 18.0847C29.5199 17.5673 29.0992 17.1466 28.5818 16.8829C28.2445 16.7111 27.8879 16.6439 27.508 16.6129C27.1438 16.5832 26.6979 16.5832 26.1638 16.5832H26.1333H26.0833V11.9998C26.0833 6.43097 21.5689 1.9165 16 1.9165Z" fill="#43A1F7"/>
</svg>
