<svg width="10" height="7" viewBox="0 0 10 7" fill="none" xmlns="http://www.w3.org/2000/svg">
<path d="M3.30291 5.30295L2.09702 4.09706C0.811891 2.81193 0.169327 2.16936 0.125909 1.61769C0.0882363 1.13901 0.281998 0.671228 0.647113 0.359391C1.06791 0 1.97663 0 3.79408 0H6.20585C8.0233 0 8.93202 0 9.35282 0.359391C9.71793 0.671228 9.91169 1.13901 9.87402 1.61769C9.8306 2.16936 9.18804 2.81193 7.90291 4.09706L6.69702 5.30294L6.69701 5.30295C6.10299 5.89697 5.80598 6.19398 5.46349 6.30526C5.16222 6.40315 4.8377 6.40315 4.53644 6.30526C4.19395 6.19398 3.89693 5.89697 3.30291 5.30295Z" fill="white"/>
</svg>
