<svg width="56" height="56" viewBox="0 0 56 56" fill="none" xmlns="http://www.w3.org/2000/svg">
<g filter="url(#filter0_d_185_829)">
<path d="M16 24C16 17.3726 21.3726 12 28 12C34.6274 12 40 17.3726 40 24C40 30.6274 34.6274 36 28 36C21.3726 36 16 30.6274 16 24Z" fill="#13B5EC"/>
<path fill-rule="evenodd" clip-rule="evenodd" d="M28.9 21.675L31.6 20.1V23.25L28.9 21.675ZM31.6 28.425L28 30.525L24.4 28.425V24.75L28 26.85L31.6 24.75V28.425ZM24.4 20.1L27.1 21.675L24.4 23.25V20.1ZM28.45 22.425L31.15 24L28.45 25.575V22.425ZM27.55 25.575L24.85 24L27.55 22.425V25.575ZM31.15 19.35L28 21.15L24.85 19.35L28 17.475L31.15 19.35ZM23.5 19.05V28.875L28 31.425L32.5 28.875V19.05L28 16.5L23.5 19.05Z" fill="white"/>
</g>
<defs>
<filter id="filter0_d_185_829" x="0" y="0" width="56" height="56" filterUnits="userSpaceOnUse" color-interpolation-filters="sRGB">
<feFlood flood-opacity="0" result="BackgroundImageFix"/>
<feColorMatrix in="SourceAlpha" type="matrix" values="0 0 0 0 0 0 0 0 0 0 0 0 0 0 0 0 0 0 127 0" result="hardAlpha"/>
<feOffset dy="4"/>
<feGaussianBlur stdDeviation="8"/>
<feComposite in2="hardAlpha" operator="out"/>
<feColorMatrix type="matrix" values="0 0 0 0 0.0745098 0 0 0 0 0.709804 0 0 0 0 0.92549 0 0 0 0.24 0"/>
<feBlend mode="normal" in2="BackgroundImageFix" result="effect1_dropShadow_185_829"/>
<feBlend mode="normal" in="SourceGraphic" in2="effect1_dropShadow_185_829" result="shape"/>
</filter>
</defs>
</svg>
