<svg width="28" height="28" viewBox="0 0 28 28" fill="none" xmlns="http://www.w3.org/2000/svg">
<g filter="url(#filter0_b_185_849)">
<rect width="28" height="28" rx="14" fill="white" fill-opacity="0.24"/>
<path opacity="0.4" fill-rule="evenodd" clip-rule="evenodd" d="M13.3637 16.9698C13.0708 16.6769 12.5959 16.6769 12.303 16.9698L11.25 18.0228L11.25 11.6667C11.25 11.2525 10.9143 10.9167 10.5 10.9167C10.0858 10.9167 9.75004 11.2525 9.75004 11.6667L9.75004 18.0228L8.69704 16.9698C8.40414 16.6769 7.92927 16.6769 7.63638 16.9698C7.34348 17.2626 7.34348 17.7375 7.63638 18.0304L9.96971 20.3637C10.1104 20.5044 10.3011 20.5834 10.5 20.5834C10.699 20.5834 10.8897 20.5044 11.0304 20.3637L13.3637 18.0304C13.6566 17.7375 13.6566 17.2626 13.3637 16.9698Z" fill="white"/>
<path fill-rule="evenodd" clip-rule="evenodd" d="M20.3637 11.0304C20.0708 11.3233 19.5959 11.3233 19.303 11.0304L18.25 9.97741L18.25 16.3334C18.25 16.7476 17.9143 17.0834 17.5 17.0834C17.0858 17.0834 16.75 16.7476 16.75 16.3334L16.75 9.97741L15.697 11.0304C15.4041 11.3233 14.9293 11.3233 14.6364 11.0304C14.3435 10.7375 14.3435 10.2626 14.6364 9.96975L16.9697 7.63642C17.2626 7.34352 17.7375 7.34352 18.0304 7.63642L20.3637 9.96975C20.6566 10.2626 20.6566 10.7375 20.3637 11.0304Z" fill="white"/>
</g>
<defs>
<filter id="filter0_b_185_849" x="-16" y="-16" width="60" height="60" filterUnits="userSpaceOnUse" color-interpolation-filters="sRGB">
<feFlood flood-opacity="0" result="BackgroundImageFix"/>
<feGaussianBlur in="BackgroundImage" stdDeviation="8"/>
<feComposite in2="SourceAlpha" operator="in" result="effect1_backgroundBlur_185_849"/>
<feBlend mode="normal" in="SourceGraphic" in2="effect1_backgroundBlur_185_849" result="shape"/>
</filter>
</defs>
</svg>
