<svg width="16" height="16" viewBox="0 0 16 16" fill="none" xmlns="http://www.w3.org/2000/svg">
<path fill-rule="evenodd" clip-rule="evenodd" d="M4.53037 1.86358C4.82326 1.57069 4.82326 1.09582 4.53037 0.802922C4.23748 0.510029 3.7626 0.510029 3.46971 0.802922L0.803044 3.46959C0.662392 3.61024 0.583374 3.80101 0.583374 3.99992C0.583374 4.19883 0.662392 4.3896 0.803044 4.53025L3.46971 7.19692C3.7626 7.48981 4.23748 7.48981 4.53037 7.19692C4.82326 6.90402 4.82326 6.42915 4.53037 6.13625L3.14403 4.74992H10.6667C11.0809 4.74992 11.4167 4.41413 11.4167 3.99992C11.4167 3.5857 11.0809 3.24992 10.6667 3.24992H3.14403L4.53037 1.86358ZM11.4697 9.86358C11.1768 9.57069 11.1768 9.09581 11.4697 8.80292C11.7626 8.51003 12.2375 8.51003 12.5304 8.80292L15.197 11.4696C15.4899 11.7625 15.4899 12.2374 15.197 12.5302L12.5304 15.1969C12.2375 15.4898 11.7626 15.4898 11.4697 15.1969C11.1768 14.904 11.1768 14.4291 11.4697 14.1363L12.856 12.7499H5.33337C4.91916 12.7499 4.58337 12.4141 4.58337 11.9999C4.58337 11.5857 4.91916 11.2499 5.33337 11.2499H12.856L11.4697 9.86358Z" fill="white" fill-opacity="0.24"/>
</svg>
