<svg width="62" height="78" viewBox="0 0 62 78" fill="none" xmlns="http://www.w3.org/2000/svg">
<path fill-rule="evenodd" clip-rule="evenodd" d="M35.9079 0.680421C34.4508 0.169289 33.0829 1.01033 31.7177 2.31459C30.3186 3.65116 28.6262 5.76661 26.4382 8.5016L26.3958 8.55468L4.87953 35.45L4.8361 35.5043C3.18017 37.5742 1.88355 39.1949 1.1118 40.5125C0.33825 41.8331 -0.0505896 43.086 0.528626 44.2911C1.10784 45.4963 2.3291 45.9753 3.84357 46.1963C5.35454 46.4167 7.43013 46.4167 10.0809 46.4167H10.081H10.1504H18.3333C19.7687 46.4167 20.7698 46.4183 21.5252 46.5198C22.259 46.6185 22.6475 46.7989 22.9243 47.0757C23.2011 47.3525 23.3815 47.741 23.4802 48.4748C23.5817 49.2302 23.5833 50.2313 23.5833 51.6667L23.5833 65.2287V65.2966C23.5833 68.7991 23.5833 71.5082 23.8409 73.4259C24.0922 75.2973 24.6349 76.8085 26.092 77.3196C27.5492 77.8307 28.917 76.9897 30.2823 75.6855C31.6814 74.3489 33.3737 72.2334 35.5617 69.4985L35.6042 69.4454L57.1204 42.55L57.1638 42.4958L57.1639 42.4958C58.8198 40.4259 60.1164 38.8051 60.8881 37.4876C61.6617 36.1669 62.0505 34.914 61.4713 33.7089C60.8921 32.5038 59.6708 32.0247 58.1564 31.8038C56.6454 31.5833 54.5699 31.5833 51.9192 31.5834H51.9191H51.8496H43.6666C42.2312 31.5834 41.2301 31.5818 40.4748 31.4802C39.741 31.3816 39.3524 31.2011 39.0757 30.9243C38.7989 30.6476 38.6184 30.259 38.5198 29.5252C38.4182 28.7699 38.4166 27.7688 38.4166 26.3334V12.7714V12.7034C38.4167 9.20092 38.4167 6.49183 38.1591 4.57412C37.9078 2.70278 37.365 1.19155 35.9079 0.680421Z" fill="url(#paint0_linear_832_165)"/>
<defs>
<linearGradient id="paint0_linear_832_165" x1="31.3455" y1="77.4712" x2="69.218" y2="45.7601" gradientUnits="userSpaceOnUse">
<stop stop-color="#FFC657"/>
<stop offset="1" stop-color="#FFD977"/>
</linearGradient>
</defs>
</svg>
