<svg width="20" height="20" viewBox="0 0 20 20" fill="none" xmlns="http://www.w3.org/2000/svg">
<path fill-rule="evenodd" clip-rule="evenodd" d="M9.99996 0.916748C4.98337 0.916748 0.916626 4.9835 0.916626 10.0001C0.916626 15.0167 4.98337 19.0834 9.99996 19.0834C15.0165 19.0834 19.0833 15.0167 19.0833 10.0001C19.0833 4.9835 15.0165 0.916748 9.99996 0.916748ZM9.99996 14.1667C10.4602 14.1667 10.8333 13.7937 10.8333 13.3334C10.8333 12.8732 10.4602 12.5001 9.99996 12.5001C9.53972 12.5001 9.16663 12.8732 9.16663 13.3334C9.16663 13.7937 9.53972 14.1667 9.99996 14.1667ZM9.99996 7.41675C9.4937 7.41675 9.08329 7.82715 9.08329 8.33342V8.75008C9.08329 9.16429 8.74751 9.50008 8.33329 9.50008C7.91908 9.50008 7.58329 9.16429 7.58329 8.75008V8.33342C7.58329 6.99873 8.66527 5.91675 9.99996 5.91675C11.3346 5.91675 12.4166 6.99873 12.4166 8.33342V8.43451C12.4166 9.10227 12.1514 9.74267 11.6792 10.2148L10.5303 11.3637C10.2374 11.6566 9.76252 11.6566 9.46963 11.3637C9.17674 11.0709 9.17674 10.596 9.46963 10.3031L10.6185 9.15418C10.8094 8.96332 10.9166 8.70444 10.9166 8.43451V8.33342C10.9166 7.82715 10.5062 7.41675 9.99996 7.41675Z" fill="rgba(255,255,255,0.24)"/>
</svg>
