<svg width="24" height="24" viewBox="0 0 24 24" fill="none" xmlns="http://www.w3.org/2000/svg">
<rect opacity="0.12" x="2" y="2" width="20" height="20" rx="6" fill="white"/>
<path fill-rule="evenodd" clip-rule="evenodd" d="M2.74999 7.5C2.74999 4.87665 4.87664 2.75 7.49999 2.75H7.99999C8.41421 2.75 8.74999 2.41421 8.74999 2C8.74999 1.58579 8.41421 1.25 7.99999 1.25H7.49999C4.04821 1.25 1.24999 4.04822 1.24999 7.5V8C1.24999 8.41421 1.58578 8.75 1.99999 8.75C2.41421 8.75 2.74999 8.41421 2.74999 8V7.5ZM16 1.25C15.5858 1.25 15.25 1.58579 15.25 2C15.25 2.41421 15.5858 2.75 16 2.75H16.5C19.1233 2.75 21.25 4.87665 21.25 7.5V8C21.25 8.41421 21.5858 8.75 22 8.75C22.4142 8.75 22.75 8.41421 22.75 8V7.5C22.75 4.04822 19.9518 1.25 16.5 1.25H16ZM2.74999 16C2.74999 15.5858 2.41421 15.25 1.99999 15.25C1.58578 15.25 1.24999 15.5858 1.24999 16V16.5C1.24999 19.9518 4.04821 22.75 7.49999 22.75H7.99999C8.41421 22.75 8.74999 22.4142 8.74999 22C8.74999 21.5858 8.41421 21.25 7.99999 21.25H7.49999C4.87664 21.25 2.74999 19.1234 2.74999 16.5V16ZM22.75 16C22.75 15.5858 22.4142 15.25 22 15.25C21.5858 15.25 21.25 15.5858 21.25 16V16.5C21.25 19.1234 19.1233 21.25 16.5 21.25H16C15.5858 21.25 15.25 21.5858 15.25 22C15.25 22.4142 15.5858 22.75 16 22.75H16.5C19.9518 22.75 22.75 19.9518 22.75 16.5V16ZM1.99994 11.25C1.58573 11.25 1.24994 11.5858 1.24994 12C1.24994 12.4142 1.58573 12.75 1.99994 12.75H21.9999C22.4142 12.75 22.7499 12.4142 22.7499 12C22.7499 11.5858 22.4142 11.25 21.9999 11.25H1.99994Z" fill="white"/>
</svg>
