<svg width="24" height="24" viewBox="0 0 24 24" fill="none" xmlns="http://www.w3.org/2000/svg">
<path fill-rule="evenodd" clip-rule="evenodd" d="M2.4361 4.18404C2.00012 5.03969 2.00012 6.15979 2.00012 8.4V9.6C2.00012 11.8402 2.00012 12.9603 2.4361 13.816C2.81959 14.5686 3.43151 15.1805 4.18416 15.564C5.03981 16 6.15991 16 8.40012 16H9.60012C11.8403 16 12.9604 16 13.8161 15.564C14.5687 15.1805 15.1807 14.5686 15.5641 13.816C16.0001 12.9603 16.0001 11.8402 16.0001 9.6V8.4C16.0001 6.15979 16.0001 5.03969 15.5641 4.18404C15.1807 3.43139 14.5687 2.81947 13.8161 2.43597C12.9604 2 11.8403 2 9.60012 2H8.40012C6.15991 2 5.03981 2 4.18416 2.43597C3.43151 2.81947 2.81959 3.43139 2.4361 4.18404ZM22.0001 12.4446V15.6C22.0001 17.8402 22.0001 18.9603 21.5641 19.816C21.1807 20.5686 20.5687 21.1805 19.8161 21.564C18.9604 22 17.8403 22 15.6001 22H12.3052C12.0219 22 11.8803 22 11.7607 21.9928C9.74006 21.8716 8.12848 20.2601 8.0073 18.2395C8.00012 18.1198 8.00012 17.9782 8.00012 17.6949C8.00012 17.6601 8.00012 17.6427 8.001 17.6279C8.01577 17.3786 8.21229 17.1784 8.46131 17.159C8.47606 17.1579 8.49347 17.1575 8.52829 17.1569L9.14812 17.1454H9.14813C11.9014 17.0944 13.2781 17.0689 14.3275 16.517C15.2508 16.0313 15.9991 15.2691 16.4676 14.3369C17 13.2775 17 11.9006 17 9.14678V8.55557C17 8.50397 17 8.47816 17.0019 8.45641C17.0231 8.2147 17.2147 8.02306 17.4564 8.0019C17.4782 8 17.504 8 17.5556 8C17.9684 8 18.1748 8 18.3488 8.01523C20.2826 8.18445 21.8157 9.71757 21.9849 11.6513C22.0001 11.8253 22.0001 12.0317 22.0001 12.4446Z" fill="white"/>
</svg>
